<?xml version="1.0" encoding="UTF-8" standalone="no"?>
<!-- Created with Inkscape (http://www.inkscape.org/) -->

<svg
   xmlns:dc="http://purl.org/dc/elements/1.1/"
   xmlns:cc="http://creativecommons.org/ns#"
   xmlns:rdf="http://www.w3.org/1999/02/22-rdf-syntax-ns#"
   xmlns:svg="http://www.w3.org/2000/svg"
   xmlns="http://www.w3.org/2000/svg"
   version="1.1"
   width="744.09448"
   height="1052.3622"
   id="svg11798">
  <defs
     id="defs11800" />
  <metadata
     id="metadata11803">
    <rdf:RDF>
      <cc:Work
         rdf:about="">
        <dc:format>image/svg+xml</dc:format>
        <dc:type
           rdf:resource="http://purl.org/dc/dcmitype/StillImage" />
        <dc:title></dc:title>
      </cc:Work>
    </rdf:RDF>
  </metadata>
  <g
     id="layer1">
    <path
       d="m 105.36274,211.99267 0,-36.38592 12.02588,0 12.02587,0 0.14736,8.42761 0.14737,8.42764 2.33231,-3.93863 c 4.40632,-7.44101 9.90604,-11.84537 16.51903,-13.22899 4.01854,-0.84078 12.22371,-1.02373 12.68167,-0.28275 0.16147,0.26128 0.0478,2.36818 -0.25285,4.68201 -0.30054,2.31383 -0.76295,7.18007 -1.02755,10.81387 -0.26462,3.6338 -0.55801,6.67894 -0.652,6.76697 -0.094,0.088 -2.09716,-0.20406 -4.45154,-0.64909 -3.43304,-0.64892 -4.93051,-0.69057 -7.56233,-0.21041 -7.26442,1.32536 -11.37859,4.33032 -14.42581,10.53648 l -1.55568,3.1684 -0.17521,19.12935 -0.17521,19.12936 -12.80065,0 -12.80066,0 0,-36.3859 z"
       id="path11823"
       style="color:#000000;fill:#000000;fill-opacity:1;fill-rule:nonzero;stroke:none;stroke-width:2;marker:none;visibility:visible;display:inline;overflow:visible;enable-background:accumulate" />
    <path
       d="m 194.95853,250.04371 c -7.31082,-1.23249 -16.50999,-6.24585 -21.03129,-11.46164 -0.88301,-1.01863 -2.02685,-2.28278 -2.54187,-2.80921 -0.51503,-0.52642 -0.93642,-1.09721 -0.93642,-1.26841 0,-0.17121 -0.79634,-1.67613 -1.76967,-3.34429 -1.04984,-1.79931 -2.27658,-5.14799 -3.01588,-8.23258 -1.08599,-4.53103 -1.20612,-6.04459 -0.93423,-11.7719 0.37325,-7.86301 1.56603,-12.35412 4.77442,-17.97688 2.85917,-5.01071 8.63553,-10.91844 13.52577,-13.83336 7.47753,-4.45713 17.79966,-6.61373 26.55819,-5.5488 15.62896,1.9003 26.31044,10.24247 31.21405,24.37801 1.58159,4.55925 1.90642,6.34072 2.21764,12.16243 l 0.36465,6.82078 -27.63853,0 c -24.62697,0 -27.63853,0.0906 -27.63853,0.83078 0,2.08078 1.84731,8.69083 2.8334,10.13851 1.90374,2.79485 4.83433,5.03601 7.68316,5.87571 3.44589,1.0157 9.20044,1.03543 12.92371,0.0444 3.76672,-1.00266 8.59642,-4.68278 8.64714,-6.58894 0.0292,-1.10002 1.83043,-0.77145 6.25996,1.14195 2.30562,0.99595 6.17651,2.62129 8.60197,3.61185 2.42544,0.99056 4.41105,2.04181 4.41246,2.3361 0.002,0.54737 -1.64907,3.4331 -2.81949,4.92609 -3.93012,5.01328 -11.90333,9.36075 -19.42977,10.59426 -5.74104,0.94092 -16.60427,0.9288 -22.26084,-0.0248 l 0,-1e-5 z m 23.64825,-48.11576 c 0,-1.64903 -2.18631,-6.52047 -3.64136,-8.11356 -0.83708,-0.91646 -2.51202,-2.32152 -3.72212,-3.12232 -2.00969,-1.32995 -2.64361,-1.45601 -7.32121,-1.45601 -4.49692,0 -5.39773,0.16275 -7.3914,1.33543 -3.79398,2.23166 -6.43067,5.90723 -7.07659,9.8649 l -0.37116,2.27413 14.76192,0 c 12.5967,0 14.76192,-0.11472 14.76192,-0.78257 z"
       id="path11825"
       style="color:#000000;fill:#000000;fill-opacity:1;fill-rule:nonzero;stroke:none;stroke-width:2;marker:none;visibility:visible;display:inline;overflow:visible;enable-background:accumulate" />
    <path
       d="m 255.52778,212.07454 0,-36.11837 11.50436,0 11.50437,0 0,7.22368 c 0,7.181 0.36192,8.48264 1.67382,6.01971 2.87916,-5.40529 9.31447,-11.17635 14.95839,-13.4144 10.88366,-4.31582 24.05294,-2.29183 31.353,4.81866 3.1822,3.09956 4.23638,4.96329 5.69438,10.06723 0.99049,3.46743 1.08641,5.74268 1.29143,30.63373 l 0.22144,26.8881 -12.6138,0 -12.6138,0 0,-21.10958 c 0,-21.59122 -0.24925,-24.90671 -2.15419,-28.65347 -2.84298,-5.59177 -10.05928,-7.61523 -16.30629,-4.57229 -3.51288,1.71111 -4.08045,2.22167 -5.85981,5.27097 -2.87257,4.92281 -3.46651,10.15903 -3.48646,30.73765 l -0.0177,18.32672 -12.57454,0 -12.57454,0 0,-36.11834 z"
       id="path11827"
       style="color:#000000;fill:#000000;fill-opacity:1;fill-rule:nonzero;stroke:none;stroke-width:2;marker:none;visibility:visible;display:inline;overflow:visible;enable-background:accumulate" />
    <path
       d="m 353.31982,221.03725 -0.13868,-27.15566 -5.48464,-0.15249 -5.48465,-0.15251 0,-8.79149 0,-8.79149 5.48465,-0.15249 5.48464,-0.15249 0.14508,-10.56797 0.14508,-10.56797 12.29569,0 12.29568,0 0,10.70173 0,10.70175 5.35086,0 5.35089,0 0,8.82893 0,8.82894 -5.35089,0 -5.35086,0 0,27.28943 0,27.28941 -12.30209,0 -12.30209,0 -0.13867,-27.15563 z"
       id="path11829"
       style="color:#000000;fill:#000000;fill-opacity:1;fill-rule:nonzero;stroke:none;stroke-width:2;marker:none;visibility:visible;display:inline;overflow:visible;enable-background:accumulate" />
    <path
       d="m 437.98614,249.66933 c -3.60219,-1.27441 -6.43464,-2.90925 -8.46584,-4.88639 -0.38889,-0.37855 -0.90995,-0.68825 -1.15788,-0.68825 -0.24793,0 -1.6962,-1.56514 -3.21838,-3.47806 -1.52217,-1.91295 -2.98763,-3.47808 -3.25659,-3.47808 -0.26895,0 -0.489,2.5283 -0.489,5.61842 l 0,5.61841 -11.50438,0 -11.50437,0 0,-55.64903 0,-55.64904 12.06413,0 12.06411,0 -0.15845,25.21162 -0.15842,25.21164 1.33771,-1.74773 c 2.06275,-2.69494 6.4969,-7.16336 8.42224,-8.48727 3.71794,-2.55657 13.35106,-4.21806 19.40229,-3.34645 7.3541,1.05927 12.04447,3.16964 16.94157,7.62264 8.34207,7.58557 12.56678,20.79549 11.36329,35.53105 -1.31276,16.07338 -9.17619,27.85477 -21.49547,32.20556 -3.03233,1.07092 -5.19388,1.41352 -10.01992,1.58812 -5.61437,0.20312 -6.5051,0.0983 -10.16664,-1.19716 l 0,0 z m 5.96337,-20.02492 c 4.21268,-1.32933 6.71427,-3.58011 8.94866,-8.05151 1.57705,-3.15598 1.67566,-3.7047 1.67566,-9.32437 0,-5.66019 -0.0906,-6.15373 -1.73905,-9.47949 -1.9921,-4.01901 -5.20205,-7.01867 -8.59964,-8.03627 -2.85803,-0.856 -10.15018,-0.86393 -12.98072,-0.0142 -2.5754,0.77322 -5.77871,3.3707 -7.4804,6.06566 -3.88391,6.15095 -3.85743,16.7953 0.0573,22.9965 3.73892,5.92283 12.13696,8.36214 20.11827,5.8436 l 0,2e-5 z"
       id="path11831"
       style="color:#000000;fill:#000000;fill-opacity:1;fill-rule:nonzero;stroke:none;stroke-width:2;marker:none;visibility:visible;display:inline;overflow:visible;enable-background:accumulate" />
    <path
       d="m 521.45969,250.56535 c -4.51671,-1.01569 -10.0659,-2.98472 -12.03946,-4.27198 -1.17719,-0.76783 -2.83119,-1.75309 -3.67558,-2.18944 -1.86005,-0.96125 -8.05707,-7.08238 -10.1372,-10.01304 -4.01322,-5.65416 -6.81811,-14.80914 -6.77139,-22.10141 0.063,-9.8361 4.59681,-20.40119 11.5959,-27.02189 4.0027,-3.78629 5.16435,-4.61794 9.51722,-6.81333 8.43854,-4.25602 19.37357,-5.52665 29.16837,-3.38931 12.76309,2.78506 23.95952,12.68336 28.488,25.18507 1.65677,4.57383 1.74442,5.19214 1.74442,12.307 0,7.10653 -0.089,7.73666 -1.73364,12.2713 -2.48757,6.8589 -7.55847,13.95549 -12.71371,17.79252 -8.17823,6.08701 -14.46374,8.25753 -24.614,8.4997 -3.82587,0.0912 -7.79889,-0.0235 -8.82893,-0.25519 l 0,0 z m 11.27207,-21.10285 c 7.61889,-1.47591 11.73665,-7.53445 11.73665,-17.26838 0,-7.18479 -2.21527,-11.89913 -7.15086,-15.21769 -3.0702,-2.06432 -3.24053,-2.10974 -7.91384,-2.10974 -5.21024,0 -7.45453,0.76671 -10.53301,3.59831 -6.55926,6.03328 -6.94394,20.12917 -0.73682,26.99972 2.3422,2.59253 3.34588,3.15729 7.07142,3.97894 3.72803,0.82222 3.38374,0.82137 7.52646,0.0189 l 0,1e-5 z"
       id="path11833"
       style="color:#000000;fill:#000000;fill-opacity:1;fill-rule:nonzero;stroke:none;stroke-width:2;marker:none;visibility:visible;display:inline;overflow:visible;enable-background:accumulate" />
    <path
       d="m 566.74239,247.70652 c 0.86708,-1.45506 2.66853,-3.90911 3.81152,-5.19227 0.66217,-0.74338 1.20393,-1.63499 1.20393,-1.98134 0,-0.34636 0.19405,-0.70999 0.43118,-0.8081 0.44253,-0.18305 6.57926,-8.28057 7.06004,-9.31584 0.14716,-0.31685 0.82949,-1.28 1.51631,-2.14033 3.27822,-4.10655 8.65035,-11.5188 8.65035,-11.93546 0,-0.25688 0.38151,-0.78368 0.84779,-1.17067 0.46628,-0.38697 1.58311,-1.77234 2.48184,-3.07861 1.63362,-2.37437 1.6338,-2.37545 0.65982,-4.02427 -0.53585,-0.90709 -2.32274,-3.46402 -3.97088,-5.68206 -1.64816,-2.21805 -3.41702,-4.63479 -3.9308,-5.37052 -0.51378,-0.73576 -1.65574,-2.30089 -2.53769,-3.47807 -0.88194,-1.17719 -2.60754,-3.58508 -3.83467,-5.35087 -1.22712,-1.76579 -2.54534,-3.52871 -2.92939,-3.9176 -0.38406,-0.38889 -0.69827,-0.8731 -0.69827,-1.07601 0,-0.20294 -0.83814,-1.32948 -1.86254,-2.50346 -1.02441,-1.17397 -1.86717,-2.43548 -1.87281,-2.80337 -0.007,-0.36786 -0.22529,-0.66885 -0.48811,-0.66885 -0.2628,0 -0.61644,-0.36118 -0.78583,-0.80263 -0.26889,-0.7007 1.44997,-0.80262 13.53512,-0.80262 l 13.84312,0 0.57404,1.47148 c 0.31573,0.80932 1.55209,3.15702 2.74751,5.21709 2.06191,3.55341 5.37038,10.204 6.52165,13.10965 0.52231,1.31828 0.54288,1.30532 1.41548,-0.892 0.487,-1.22634 1.06606,-2.41021 1.28679,-2.63084 0.22071,-0.22062 0.4013,-0.72698 0.4013,-1.12523 0,-0.39823 0.62994,-1.72202 1.39993,-2.94172 1.30025,-2.05975 3.11661,-5.32018 5.68319,-10.20186 l 1.05499,-2.00657 14.4442,0 14.44411,0 -1.42189,1.73903 c -1.49247,1.82531 -8.1982,10.86663 -9.11771,12.29334 -0.96219,1.49288 -7.45575,10.12741 -8.9627,11.9177 -0.80938,0.9615 -1.47152,1.91666 -1.47152,2.12257 0,0.20593 -0.84275,1.40287 -1.87279,2.65991 -1.03004,1.25703 -1.87279,2.671 -1.87279,3.14215 0,0.73712 2.02878,3.64767 8.83686,12.67786 0.77661,1.03004 3.21335,4.28068 5.41497,7.22367 2.20161,2.94298 4.65119,6.16689 5.44357,7.16426 0.7923,0.99735 1.53686,2.08091 1.6545,2.40788 0.11769,0.32698 0.37437,0.71491 0.57042,0.86204 0.19605,0.14715 1.1073,1.3511 2.02502,2.67544 0.91771,1.32434 2.30609,3.13027 3.0853,4.01316 l 1.4166,1.60526 -13.81352,0.14306 c -7.59745,0.0786 -14.11179,0.0285 -14.47642,-0.11124 -0.36455,-0.13991 -1.09088,-1.08824 -1.61404,-2.1074 -1.20941,-2.35616 -3.81155,-6.7457 -7.74958,-13.07284 -1.70535,-2.74001 -3.1007,-5.18812 -3.1007,-5.44027 0,-0.25215 -0.4959,-1.61537 -1.10202,-3.02938 l -1.10203,-2.57091 -1.92214,4.26559 c -1.05718,2.34608 -2.60797,5.27212 -3.4462,6.50234 -0.83824,1.23022 -1.52408,2.37913 -1.52408,2.55315 0,0.174 -0.56972,1.21416 -1.26604,2.31146 -0.69632,1.09732 -2.41619,3.98162 -3.82191,6.40958 l -2.55588,4.41446 -13.86753,0 c -10.94986,0 -13.78368,-0.14072 -13.46897,-0.66885 z"
       id="path11835"
       style="color:#000000;fill:#000000;fill-opacity:1;fill-rule:nonzero;stroke:none;stroke-width:2;marker:none;visibility:visible;display:inline;overflow:visible;enable-background:accumulate" />
    <path
       d="m 61.192059,136.13592 c 1.453288,-0.32872 4.491969,-0.95923 6.752659,-1.40115 2.260668,-0.44192 6.752659,-1.33228 9.982197,-1.97857 3.229538,-0.64629 8.910579,-1.73854 12.624557,-2.42723 3.713957,-0.68871 9.394998,-1.75474 12.624538,-2.36896 12.46824,-2.37133 18.42488,-3.4437 24.36832,-4.38693 3.39101,-0.53817 8.93994,-1.4711 12.33095,-2.0732 7.20774,-1.27979 17.69094,-2.98967 28.62543,-4.66899 4.27913,-0.65719 11.14923,-1.71545 15.26688,-2.35169 4.11768,-0.63624 10.39325,-1.54378 13.94573,-2.01675 3.55249,-0.47298 10.42259,-1.39798 15.2669,-2.05556 39.78003,-5.39985 64.82152,-7.92377 109.8042,-11.067152 21.00961,-1.468132 81.06624,-1.466879 102.46436,0.0025 46.09963,3.164842 76.70327,6.386522 124.19033,13.073692 3.22954,0.4548 7.19305,0.96933 8.80782,1.14342 1.61477,0.1741 5.18193,0.69752 7.92704,1.16317 2.7451,0.46565 8.55827,1.39839 12.91815,2.07279 9.19311,1.422 19.88702,3.16229 29.06582,4.7301 3.55248,0.6068 8.96933,1.52012 12.0374,2.02961 12.23604,2.03197 32.75587,5.83409 49.32376,9.13922 10.63674,2.12191 14.39866,2.83856 16.92126,3.22347 1.39426,0.21275 2.40804,0.51392 2.2527,0.66926 -0.15541,0.15533 -4.86335,-0.24863 -10.46217,-0.8977 -16.59823,-1.92423 -54.14527,-5.35649 -74.47686,-6.80808 -6.9435,-0.49574 -19.7589,-1.42239 -28.47863,-2.05923 -80.53206,-5.8817 -181.06549,-8.80828 -244.56393,-7.11956 -14.37142,0.38221 -34.84962,0.92296 -45.50708,1.20171 -26.97875,0.7056 -76.1629,3.28746 -112.44658,5.90275 -8.88122,0.64015 -21.69659,1.56477 -28.47863,2.05473 -20.00893,1.4455 -50.306675,4.18003 -71.930569,6.49215 -4.682815,0.5007 -9.703264,1.01604 -11.156552,1.14519 l -2.642361,0.23481 2.642361,-0.59766 z"
       id="path11837"
       style="color:#000000;fill:#000000;fill-opacity:1;fill-rule:nonzero;stroke:none;stroke-width:2;marker:none;visibility:visible;display:inline;overflow:visible;enable-background:accumulate" />
  </g>
</svg>
