<?xml version="1.0" encoding="UTF-8"?>
<!DOCTYPE svg PUBLIC "-//W3C//DTD SVG 1.1//EN" "http://www.w3.org/Graphics/SVG/1.1/DTD/svg11.dtd">
<!-- Creator: CorelDRAW -->
<svg xmlns="http://www.w3.org/2000/svg" xml:space="preserve" width="203.2mm" height="88.9mm" style="shape-rendering:geometricPrecision; text-rendering:geometricPrecision; image-rendering:optimizeQuality; fill-rule:evenodd; clip-rule:evenodd"
viewBox="0 0 203.2 88.9"
 xmlns:xlink="http://www.w3.org/1999/xlink">
 <defs>
  <style type="text/css">
   <![CDATA[
    .fil0 {fill:#EB1C23}
    .fil1 {fill:#FEFEFE;fill-rule:nonzero}
   ]]>
  </style>
 </defs>
 <g id="__x0023_Layer_x0020_1">
  <metadata id="CorelCorpID_0Corel-Layer"/>
  <g id="_460081096">
   <polygon id="_460088680" class="fil0" points="-0,0 203.2,0 203.2,88.9 -0,88.9 "/>
   <g>
    <path id="_460082536" class="fil1" d="M189.338 34.4057c0,0 -50.4497,-10.9654 -87.7379,-10.9654 -37.2884,0 -87.7382,10.9654 -87.7382,10.9654 0,0 41.9191,-4.9358 87.7382,-4.9358 45.819,0 87.7379,4.9358 87.7379,4.9358z"/>
    <g>
     <path id="_460091464" class="fil1" d="M28.2947 64.6919l0 -19.8837 6.6149 0 0 4.6849c0.6823,-1.7056 1.6145,-2.9855 2.7957,-3.8388 1.1811,-0.853 2.6115,-1.2799 4.2917,-1.2799 0.2756,0 0.5545,0.0104 0.8366,0.03 0.2822,0.0193 0.5676,0.0489 0.8567,0.0882l-0.6696 6.3786c-0.42,-0.1444 -0.8337,-0.2488 -1.2402,-0.3149 -0.4069,-0.0654 -0.8007,-0.0982 -1.1812,-0.0982 -1.7065,0 -3.0222,0.5216 -3.9476,1.5655 -0.9249,1.0428 -1.3878,2.5228 -1.3878,4.439l0 8.2293 -6.9692 0z"/>
     <path id="_460086808" class="fil1" d="M66.0751 56.1477l-15.1197 0c0.0131,1.5358 0.4069,2.7203 1.1812,3.5536 0.7743,0.8334 1.8703,1.2499 3.2878,1.2499 1.0632,0 1.9589,-0.2002 2.6874,-0.6005 0.7284,-0.4 1.2828,-0.9939 1.6636,-1.7814l5.276 2.1259c-0.6301,1.5231 -1.7455,2.6975 -3.3468,3.524 -1.6012,0.8272 -3.5632,1.2406 -5.8864,1.2406 -3.4647,0 -6.2442,-0.9615 -8.3373,-2.8843 -2.0938,-1.923 -3.14,-4.4593 -3.14,-7.6091 0,-3.0972 1.0462,-5.67 3.14,-7.7177 2.0931,-2.0468 4.741,-3.071 7.9435,-3.071 3.2942,0 5.8929,1.037 7.7963,3.1109 1.9029,2.0737 2.8544,4.9148 2.8544,8.5246l0 0.3345zm-6.9102 -3.9571l0 0c-0.1311,-1.1286 -0.561,-2.0339 -1.2894,-2.7171 -0.7285,-0.6821 -1.6243,-1.0232 -2.6874,-1.0232 -1.1417,0 -2.0505,0.3115 -2.7264,0.935 -0.6763,0.6236 -1.1258,1.5586 -1.3485,2.8053l8.0517 0z"/>
     <path id="_460093072" class="fil1" d="M69.2847 64.6919l0 -19.8837 6.4182 0 0 4.0355c0.9318,-1.6147 2.008,-2.7957 3.2288,-3.5436 1.2206,-0.7483 2.6839,-1.1224 4.3901,-1.1224 1.286,0 2.4315,0.2071 3.4354,0.6201 1.0043,0.4135 1.8209,1.0074 2.451,1.7822 0.5249,0.6687 0.8987,1.4831 1.1223,2.4405 0.2227,0.9588 0.3347,2.3895 0.3347,4.2919l0 11.3795 -7.0282 0 0 -10.6505c0,-1.5886 -0.2596,-2.7433 -0.7777,-3.4655 -0.5188,-0.7213 -1.3488,-1.0828 -2.4907,-1.0828 -1.4569,0 -2.5197,0.5389 -3.1892,1.6148 -0.6691,1.0759 -1.0039,2.8215 -1.0039,5.2365l0 8.3475 -6.8908 0z"/>
     <polygon id="_460079992" class="fil1" points="95.8833,64.6919 95.8833,49.7688 92.9103,49.7688 92.9103,44.8082 95.8833,44.8082 95.8833,38.8819 102.793,38.8819 102.793,44.8082 105.766,44.8082 105.766,49.7688 102.793,49.7688 102.793,64.6919 "/>
     <path id="_460087432" class="fil1" d="M108.267 34.1766l6.6935 0 0 10.3949c0,0.8399 -0.0162,1.5393 -0.0493,2.0967 -0.0331,0.5584 -0.082,1.0404 -0.1475,1.4469 0.8138,-1.4173 1.7488,-2.4277 2.8054,-3.032 1.0566,-0.6033 2.4319,-0.9054 4.1248,-0.9054 2.651,0 4.8004,0.975 6.4475,2.9235 1.6471,1.9489 2.4708,4.5055 2.4708,7.6685 0,3.2676 -0.8306,5.8666 -2.4905,7.7955 -1.6605,1.9296 -3.8822,2.8946 -6.6645,2.8946 -1.3646,0 -2.6052,-0.3318 -3.7203,-0.9946 -1.1159,-0.6628 -2.1205,-1.6633 -3.0125,-3.0021l0 3.2288 -6.4574 0 0 -30.5153zm6.2208 20.5931l0 0c0,1.5485 0.4041,2.7695 1.211,3.6614 0.8078,0.8926 1.9196,1.3391 3.3372,1.3391 1.43,0 2.5528,-0.443 3.3666,-1.3291 0.8137,-0.8857 1.2202,-2.1094 1.2202,-3.6714 0,-1.5489 -0.41,-2.7692 -1.2306,-3.6618 -0.8196,-0.8927 -1.9389,-1.3391 -3.3562,-1.3391 -1.4176,0 -2.5294,0.4464 -3.3372,1.3391 -0.8069,0.8926 -1.211,2.1129 -1.211,3.6618z"/>
     <path id="_460080328" class="fil1" d="M155.123 54.8086c0,1.4307 -0.279,2.7891 -0.8368,4.0755 -0.5581,1.2864 -1.3684,2.4412 -2.4312,3.4648 -1.0766,1.0242 -2.2806,1.798 -3.6129,2.3233 -1.3322,0.5247 -2.746,0.7876 -4.2422,0.7876 -1.5231,0 -2.9504,-0.2629 -4.282,-0.7876 -1.3322,-0.5253 -2.5235,-1.2991 -3.5732,-2.3233 -1.0504,-0.997 -1.8507,-2.1425 -2.4023,-3.4352 -0.5505,-1.2922 -0.8264,-2.6609 -0.8264,-4.1051 0,-1.4563 0.2724,-2.8277 0.8171,-4.1142 0.544,-1.2864 1.3484,-2.4411 2.4116,-3.4654 1.0363,-1.0104 2.221,-1.7718 3.5533,-2.2834 1.3322,-0.5116 2.766,-0.7679 4.3019,-0.7679 1.5351,0 2.9658,0.2563 4.2915,0.7679 1.3253,0.5116 2.5132,1.273 3.5636,2.2834 1.0763,1.037 1.89,2.1987 2.4408,3.4851 0.5516,1.2864 0.8272,2.651 0.8272,4.0945zm-6.9694 0l0 0c0,-1.4824 -0.3741,-2.651 -1.1217,-3.5037 -0.7483,-0.853 -1.7591,-1.2798 -3.032,-1.2798 -1.2865,0 -2.3003,0.4268 -3.042,1.2798 -0.7414,0.8527 -1.1125,2.0213 -1.1125,3.5037 0,1.4831 0.3676,2.6482 1.1031,3.4943 0.7349,0.8469 1.7515,1.2703 3.0514,1.2703 1.2857,0 2.2999,-0.4234 3.0413,-1.2703 0.7417,-0.8461 1.1124,-2.0112 1.1124,-3.4943z"/>
     <path id="_460083376" class="fil1" d="M164.613 48.194c0.2884,0.5643 0.5051,1.0242 0.6498,1.378 0.1443,0.3546 0.2556,0.6891 0.3345,1.0039 0.0654,-0.3276 0.164,-0.6594 0.2952,-0.9939 0.1316,-0.3348 0.3549,-0.7975 0.6694,-1.388l1.89 -3.3858 7.9341 0 -6.8117 9.2332 7.9537 10.6505 -7.9144 0 -2.9728 -5.0006c-0.2363,-0.3938 -0.4334,-0.7875 -0.5905,-1.1813 -0.1578,-0.3938 -0.2825,-0.7875 -0.3741,-1.1813 -0.1051,0.4072 -0.236,0.8044 -0.3938,1.1913 -0.1578,0.3872 -0.3545,0.7775 -0.5905,1.1713l-2.9335 5.0006 -7.7762 0 7.8158 -10.6505 -6.6941 -9.2332 7.6584 0 1.8507 3.3858z"/>
    </g>
   </g>
  </g>
 </g>
</svg>
