<?xml version="1.0" encoding="UTF-8" standalone="no"?>
<!-- Created with Inkscape (http://www.inkscape.org/) -->

<svg
   xmlns:dc="http://purl.org/dc/elements/1.1/"
   xmlns:cc="http://creativecommons.org/ns#"
   xmlns:rdf="http://www.w3.org/1999/02/22-rdf-syntax-ns#"
   xmlns:svg="http://www.w3.org/2000/svg"
   xmlns="http://www.w3.org/2000/svg"
   xmlns:xlink="http://www.w3.org/1999/xlink"
   xmlns:sodipodi="http://sodipodi.sourceforge.net/DTD/sodipodi-0.dtd"
   xmlns:inkscape="http://www.inkscape.org/namespaces/inkscape"
   sodipodi:docname="movies.svg"
   inkscape:version="0.47 r22583"
   sodipodi:version="0.32"
   id="svg1430"
   height="271"
   width="271"
   inkscape:output_extension="org.inkscape.output.svg.inkscape"
   version="1.0"
   inkscape:export-filename="/home/kaleo/dev/elisa_branches/trunk/elisa-plugins/elisa/plugins/raval_frontend/tango_theme/movies.png"
   inkscape:export-xdpi="90"
   inkscape:export-ydpi="90">
  <defs
     id="defs3">
    <inkscape:perspective
       sodipodi:type="inkscape:persp3d"
       inkscape:vp_x="-50 : 600 : 1"
       inkscape:vp_y="0 : 1000 : 0"
       inkscape:vp_z="700 : 600 : 1"
       inkscape:persp3d-origin="300 : 400 : 1"
       id="perspective114" />
    <radialGradient
       inkscape:collect="always"
       xlink:href="#linearGradient5060"
       id="radialGradient6719"
       gradientUnits="userSpaceOnUse"
       gradientTransform="matrix(-2.774389,0,0,1.969706,112.7623,-872.8854)"
       cx="605.71429"
       cy="486.64789"
       fx="605.71429"
       fy="486.64789"
       r="117.14286" />
    <linearGradient
       inkscape:collect="always"
       id="linearGradient5060">
      <stop
         style="stop-color:black;stop-opacity:1;"
         offset="0"
         id="stop5062" />
      <stop
         style="stop-color:black;stop-opacity:0;"
         offset="1"
         id="stop5064" />
    </linearGradient>
    <linearGradient
       id="linearGradient5048">
      <stop
         style="stop-color:black;stop-opacity:0;"
         offset="0"
         id="stop5050" />
      <stop
         id="stop5056"
         offset="0.5"
         style="stop-color:black;stop-opacity:1;" />
      <stop
         style="stop-color:black;stop-opacity:0;"
         offset="1"
         id="stop5052" />
    </linearGradient>
    <linearGradient
       id="linearGradient3593">
      <stop
         id="stop3595"
         offset="0"
         style="stop-color:#939393;stop-opacity:1;" />
      <stop
         id="stop3597"
         offset="1.0000000"
         style="stop-color:#d9d9d9;stop-opacity:1.0000000;" />
    </linearGradient>
    <linearGradient
       id="linearGradient3575"
       inkscape:collect="always">
      <stop
         id="stop3577"
         offset="0"
         style="stop-color:#000000;stop-opacity:1;" />
      <stop
         id="stop3579"
         offset="1"
         style="stop-color:#000000;stop-opacity:0;" />
    </linearGradient>
    <linearGradient
       id="linearGradient2613"
       inkscape:collect="always">
      <stop
         id="stop2615"
         offset="0"
         style="stop-color:#ffffff;stop-opacity:1;" />
      <stop
         id="stop2617"
         offset="1"
         style="stop-color:#ffffff;stop-opacity:0;" />
    </linearGradient>
    <linearGradient
       id="linearGradient2601">
      <stop
         id="stop2603"
         offset="0.0000000"
         style="stop-color:#5d5d5d;stop-opacity:1.0000000;" />
      <stop
         id="stop2605"
         offset="1.0000000"
         style="stop-color:#444444;stop-opacity:1.0000000;" />
    </linearGradient>
    <linearGradient
       id="linearGradient2502">
      <stop
         id="stop2504"
         offset="0"
         style="stop-color:#fdfdfd;stop-opacity:1;" />
      <stop
         id="stop2506"
         offset="1.0000000"
         style="stop-color:#d4d4d4;stop-opacity:1.0000000;" />
    </linearGradient>
    <radialGradient
       gradientUnits="userSpaceOnUse"
       gradientTransform="matrix(2.883137,0,0,2.136047,-63.074908,-51.733908)"
       r="19.57143"
       fy="35.673447"
       fx="27.216267"
       cy="35.673447"
       cx="27.216267"
       id="radialGradient2607"
       xlink:href="#linearGradient2601"
       inkscape:collect="always" />
    <linearGradient
       gradientUnits="userSpaceOnUse"
       y2="49.142849"
       x2="21.536488"
       y1="13.142847"
       x1="5.463501"
       id="linearGradient2619"
       xlink:href="#linearGradient2613"
       inkscape:collect="always"
       gradientTransform="translate(1.8933136,0.7519504)" />
    <radialGradient
       gradientUnits="userSpaceOnUse"
       gradientTransform="matrix(1,0,0,0.20712,0,35.11327)"
       r="22.071428"
       fy="44.285713"
       fx="24.642857"
       cy="44.285713"
       cx="24.642857"
       id="radialGradient3581"
       xlink:href="#linearGradient3575"
       inkscape:collect="always" />
    <linearGradient
       gradientUnits="userSpaceOnUse"
       y2="11.107142"
       x2="7.9285712"
       y1="15.928572"
       x1="10.678571"
       id="linearGradient3599"
       xlink:href="#linearGradient3593"
       inkscape:collect="always"
       gradientTransform="translate(1.8933136,0.7519504)" />
    <linearGradient
       y2="18.693317"
       x2="18.772917"
       y1="6.1102505"
       x1="2.7612331"
       gradientUnits="userSpaceOnUse"
       id="linearGradient4385"
       xlink:href="#linearGradient2502"
       inkscape:collect="always" />
    <linearGradient
       gradientTransform="translate(1.0761616,0.5801361)"
       y2="18.693317"
       x2="18.772917"
       y1="6.1102505"
       x1="2.7612331"
       gradientUnits="userSpaceOnUse"
       id="linearGradient4387"
       xlink:href="#linearGradient2502"
       inkscape:collect="always" />
    <linearGradient
       inkscape:collect="always"
       xlink:href="#linearGradient5048"
       id="linearGradient2270"
       gradientUnits="userSpaceOnUse"
       gradientTransform="matrix(2.774389,0,0,1.969706,-1892.179,-872.8854)"
       x1="302.85715"
       y1="366.64789"
       x2="302.85715"
       y2="609.50507" />
    <radialGradient
       inkscape:collect="always"
       xlink:href="#linearGradient5060"
       id="radialGradient2272"
       gradientUnits="userSpaceOnUse"
       gradientTransform="matrix(2.774389,0,0,1.969706,-1891.633,-872.8854)"
       cx="605.71429"
       cy="486.64789"
       fx="605.71429"
       fy="486.64789"
       r="117.14286" />
    <linearGradient
       gradientTransform="translate(0,2)"
       gradientUnits="userSpaceOnUse"
       y2="32.133045"
       x2="26.625"
       y1="32.133045"
       x1="43.6875"
       id="linearGradient7144"
       xlink:href="#linearGradient7138"
       inkscape:collect="always" />
    <linearGradient
       gradientUnits="userSpaceOnUse"
       y2="25.772396"
       x2="29.049412"
       y1="12.75"
       x1="23.816254"
       id="linearGradient7093"
       xlink:href="#linearGradient7087"
       inkscape:collect="always" />
    <radialGradient
       gradientUnits="userSpaceOnUse"
       gradientTransform="matrix(1,0,0,0.663934,0,9.061528)"
       r="21.566757"
       fy="26.963573"
       fx="23.157747"
       cy="26.963573"
       cx="23.157747"
       id="radialGradient7085"
       xlink:href="#linearGradient7079"
       inkscape:collect="always" />
    <linearGradient
       gradientTransform="matrix(0.884878,0,0,0.884878,5.318113,5.943159)"
       gradientUnits="userSpaceOnUse"
       y2="34.140205"
       x2="40.820396"
       y1="35.24506"
       x1="46.54464"
       id="linearGradient7075"
       xlink:href="#linearGradient7069"
       inkscape:collect="always" />
    <linearGradient
       gradientUnits="userSpaceOnUse"
       y2="-4.5986342"
       x2="21.107563"
       y1="31.867859"
       x1="21.03167"
       id="linearGradient7060"
       xlink:href="#linearGradient7054"
       inkscape:collect="always" />
    <linearGradient
       id="linearGradient7054"
       inkscape:collect="always">
      <stop
         id="stop7056"
         offset="0"
         style="stop-color:#ffffff;stop-opacity:1;" />
      <stop
         id="stop7058"
         offset="1"
         style="stop-color:#ffffff;stop-opacity:0;" />
    </linearGradient>
    <radialGradient
       gradientTransform="translate(1.971678,9.220141)"
       inkscape:collect="always"
       xlink:href="#aigrd4"
       id="radialGradient6540"
       gradientUnits="userSpaceOnUse"
       cx="20.655508"
       cy="24.735121"
       fx="20.655508"
       fy="24.735121"
       r="14.1515" />
    <radialGradient
       gradientUnits="userSpaceOnUse"
       fy="22.6138"
       fx="9.3417997"
       r="14.1515"
       cy="22.6138"
       cx="9.3417997"
       id="aigrd4">
      <stop
         id="stop6452"
         style="stop-color:#767676"
         offset="0" />
      <stop
         id="stop6454"
         style="stop-color:#484848"
         offset="1" />
    </radialGradient>
    <linearGradient
       id="linearGradient7069"
       inkscape:collect="always">
      <stop
         id="stop7071"
         offset="0"
         style="stop-color:#888a85;stop-opacity:1;" />
      <stop
         id="stop7073"
         offset="1"
         style="stop-color:#888a85;stop-opacity:0;" />
    </linearGradient>
    <linearGradient
       id="linearGradient7079"
       inkscape:collect="always">
      <stop
         id="stop7081"
         offset="0"
         style="stop-color:#000000;stop-opacity:1;" />
      <stop
         id="stop7083"
         offset="1"
         style="stop-color:#000000;stop-opacity:0;" />
    </linearGradient>
    <linearGradient
       id="linearGradient7087">
      <stop
         id="stop7089"
         offset="0"
         style="stop-color:#888a85;stop-opacity:1;" />
      <stop
         id="stop7091"
         offset="1"
         style="stop-color:#b8b9b6;stop-opacity:1;" />
    </linearGradient>
    <linearGradient
       id="linearGradient7138"
       inkscape:collect="always">
      <stop
         id="stop7140"
         offset="0"
         style="stop-color:#ffffff;stop-opacity:1;" />
      <stop
         id="stop7142"
         offset="1"
         style="stop-color:#ffffff;stop-opacity:0;" />
    </linearGradient>
    <inkscape:perspective
       id="perspective2992"
       inkscape:persp3d-origin="0.5 : 0.33333333 : 1"
       inkscape:vp_z="1 : 0.5 : 1"
       inkscape:vp_y="0 : 1000 : 0"
       inkscape:vp_x="0 : 0.5 : 1"
       sodipodi:type="inkscape:persp3d" />
    <inkscape:perspective
       id="perspective2992-8"
       inkscape:persp3d-origin="0.5 : 0.33333333 : 1"
       inkscape:vp_z="1 : 0.5 : 1"
       inkscape:vp_y="0 : 1000 : 0"
       inkscape:vp_x="0 : 0.5 : 1"
       sodipodi:type="inkscape:persp3d" />
    <inkscape:perspective
       id="perspective3777"
       inkscape:persp3d-origin="0.5 : 0.33333333 : 1"
       inkscape:vp_z="1 : 0.5 : 1"
       inkscape:vp_y="0 : 1000 : 0"
       inkscape:vp_x="0 : 0.5 : 1"
       sodipodi:type="inkscape:persp3d" />
    <inkscape:perspective
       id="perspective2888"
       inkscape:persp3d-origin="0.5 : 0.33333333 : 1"
       inkscape:vp_z="1 : 0.5 : 1"
       inkscape:vp_y="0 : 1000 : 0"
       inkscape:vp_x="0 : 0.5 : 1"
       sodipodi:type="inkscape:persp3d" />
  </defs>
  <sodipodi:namedview
     inkscape:showpageshadow="false"
     inkscape:window-y="25"
     inkscape:window-x="0"
     inkscape:window-height="522"
     inkscape:window-width="1016"
     inkscape:document-units="px"
     inkscape:grid-bbox="true"
     showgrid="false"
     inkscape:current-layer="layer1"
     inkscape:cy="52.442729"
     inkscape:cx="89.946998"
     inkscape:zoom="1.4142136"
     inkscape:pageshadow="2"
     inkscape:pageopacity="0"
     borderopacity="0.14117647"
     bordercolor="#666666"
     pagecolor="#000000"
     id="base"
     width="256px"
     height="256px"
     inkscape:window-maximized="0" />
  <metadata
     id="metadata4">
    <rdf:RDF>
      <cc:Work
         rdf:about="">
        <dc:format>image/svg+xml</dc:format>
        <dc:type
           rdf:resource="http://purl.org/dc/dcmitype/StillImage" />
        <dc:title>Multimedia Category</dc:title>
        <dc:creator>
          <cc:Agent>
            <dc:title>Jakub Steiner</dc:title>
          </cc:Agent>
        </dc:creator>
        <dc:source>http://jimmac.musichall.cz</dc:source>
        <dc:subject>
          <rdf:Bag>
            <rdf:li>video</rdf:li>
            <rdf:li>multimedia</rdf:li>
            <rdf:li>category</rdf:li>
          </rdf:Bag>
        </dc:subject>
        <dc:contributor>
          <cc:Agent>
            <dc:title />
          </cc:Agent>
        </dc:contributor>
        <cc:license
           rdf:resource="http://creativecommons.org/licenses/by-sa/2.0/" />
      </cc:Work>
      <cc:License
         rdf:about="http://creativecommons.org/licenses/by/2.0/">
        <cc:permits
           rdf:resource="http://web.resource.org/cc/Reproduction" />
        <cc:permits
           rdf:resource="http://web.resource.org/cc/Distribution" />
        <cc:requires
           rdf:resource="http://web.resource.org/cc/Notice" />
        <cc:requires
           rdf:resource="http://web.resource.org/cc/Attribution" />
        <cc:permits
           rdf:resource="http://web.resource.org/cc/DerivativeWorks" />
        <cc:requires
           rdf:resource="http://web.resource.org/cc/ShareAlike" />
      </cc:License>
    </rdf:RDF>
  </metadata>
  <g
     inkscape:groupmode="layer"
     inkscape:label="Layer 1"
     id="layer1"
     transform="translate(0,15)">
    <g
       id="g3454"
       transform="matrix(1.1929927,0,0,1.2023249,-20.343755,-30.209333)">
      <g
         transform="matrix(3.6497035,-1.4495201,1.4495201,3.6497035,-14.519136,72.549857)"
         id="g2228">
        <g
           transform="matrix(0.02314335,0.00309133,-0.00276281,0.02068388,47.380492,46.518343)"
           id="g6707">
          <rect
             style="opacity:0.40206185;color:#000000;fill:url(#linearGradient2270);fill-opacity:1;fill-rule:nonzero;stroke:none;stroke-width:1;marker:none;visibility:visible;display:inline;overflow:visible"
             id="rect6709"
             width="1339.6335"
             height="478.35718"
             x="-1559.2523"
             y="-150.69685" />
          <path
             style="opacity:0.40206185;color:#000000;fill:url(#radialGradient2272);fill-opacity:1;fill-rule:nonzero;stroke:none;stroke-width:1;marker:none;visibility:visible;display:inline;overflow:visible"
             d="m -219.61876,-150.68038 c 0,0 0,478.33079 0,478.33079 142.874166,0.90045 345.40022,-107.16966 345.40014,-239.196175 0,-132.026537 -159.436816,-239.134595 -345.40014,-239.134615 z"
             id="path6711"
             sodipodi:nodetypes="cccc" />
          <path
             sodipodi:nodetypes="cccc"
             id="path6713"
             d="m -1559.2523,-150.68038 c 0,0 0,478.33079 0,478.33079 -142.8742,0.90045 -345.4002,-107.16966 -345.4002,-239.196175 0,-132.026537 159.4368,-239.134595 345.4002,-239.134615 z"
             style="opacity:0.40206185;color:#000000;fill:url(#radialGradient6719);fill-opacity:1;fill-rule:nonzero;stroke:none;stroke-width:1;marker:none;visibility:visible;display:inline;overflow:visible" />
        </g>
        <rect
           ry="1.1428572"
           rx="1.1428572"
           y="17.323383"
           x="7.3218851"
           height="27.999996"
           width="38.14286"
           id="rect1440"
           style="color:#000000;fill:url(#radialGradient2607);fill-opacity:1;fill-rule:nonzero;stroke:#1b1b1b;stroke-width:1;stroke-linecap:butt;stroke-linejoin:miter;stroke-miterlimit:4;stroke-opacity:1;stroke-dasharray:none;stroke-dashoffset:0;marker:none;visibility:visible;display:block" />
        <rect
           style="opacity:0.31155778;color:#000000;fill:none;stroke:url(#linearGradient2619);stroke-width:0.99999964;stroke-linecap:butt;stroke-linejoin:miter;stroke-miterlimit:4;stroke-opacity:1;stroke-dasharray:none;stroke-dashoffset:0;marker:none;visibility:visible;display:block"
           id="rect2609"
           width="36.072987"
           height="26.060221"
           x="8.285387"
           y="18.241247"
           rx="0.27372196"
           ry="0.27372196" />
        <g
           transform="matrix(-0.97271,0.232023,0.232023,0.97271,47.679102,5.8625814)"
           id="g4376">
          <rect
             transform="matrix(0.974407,-0.22479,0.22479,0.974407,0,0)"
             ry="1.1428572"
             rx="1.1428572"
             y="10.35317"
             x="1.7052064"
             height="6.50879"
             width="39.805996"
             id="rect4362"
             style="color:#000000;fill:url(#linearGradient4385);fill-opacity:1;fill-rule:nonzero;stroke:#2b2b2b;stroke-width:1.00000024;stroke-linecap:butt;stroke-linejoin:miter;stroke-miterlimit:4;stroke-opacity:1;stroke-dasharray:none;stroke-dashoffset:0;marker:none;visibility:visible;display:block" />
          <path
             sodipodi:nodetypes="ccccc"
             id="path4364"
             d="M 9.1896391,8.9691823 6.7610675,15.540611 11.475352,14.254897 13.903923,7.9691824 9.1896391,8.9691823 z"
             style="fill:#000000;fill-opacity:1;fill-rule:evenodd;stroke:none" />
          <path
             style="fill:#000000;fill-opacity:1;fill-rule:evenodd;stroke:none"
             d="m 18.332496,6.8977538 -2.285715,6.5000002 4.714286,-1.142857 2.285714,-6.3571431 -4.714285,0.9999999 z"
             id="path4366"
             sodipodi:nodetypes="ccccc" />
          <path
             sodipodi:nodetypes="ccccc"
             id="path4368"
             d="M 27.903923,4.6834682 25.618208,11.11204 30.332494,9.9691828 32.618208,3.6834683 27.903923,4.6834682 z"
             style="fill:#000000;fill-opacity:1;fill-rule:evenodd;stroke:none" />
          <path
             sodipodi:nodetypes="ccccccc"
             id="path4370"
             d="m 39.412852,2.0182896 c 0.229074,0.1560539 0.401242,0.3636209 0.46875,0.65625 l 0.732143,3.0758928 -0.723214,2 -4.6875,1.0848214 2.28125,-6.3571428 1.928571,-0.4598214 z"
             style="color:#000000;fill:#000000;fill-opacity:1;fill-rule:nonzero;stroke:none;stroke-width:1;marker:none;visibility:visible;display:block" />
          <rect
             style="color:#000000;fill:none;stroke:#ffffff;stroke-width:1;stroke-linecap:butt;stroke-linejoin:miter;stroke-miterlimit:4;stroke-opacity:0.57512949;stroke-dasharray:none;stroke-dashoffset:0;marker:none;visibility:visible;display:block"
             id="rect4372"
             width="37.842842"
             height="4.6068902"
             x="2.6716552"
             y="11.327118"
             rx="0.26506385"
             ry="0.26506385"
             transform="matrix(0.974407,-0.22479,0.22479,0.974407,0,0)" />
        </g>
        <rect
           transform="matrix(0.9744072,-0.2247901,0.2247901,0.9744072,0,0)"
           ry="1.142855"
           rx="1.142855"
           y="10.843451"
           x="2.3462579"
           height="6.9415712"
           width="40.077328"
           id="rect2200"
           style="color:#000000;fill:url(#linearGradient4387);fill-opacity:1;fill-rule:nonzero;stroke:#2e2e2e;stroke-width:0.99999809;stroke-linecap:butt;stroke-linejoin:miter;stroke-miterlimit:4;stroke-opacity:1;stroke-dasharray:none;stroke-dashoffset:0;marker:none;visibility:visible;display:block" />
        <path
           sodipodi:nodetypes="ccccc"
           id="path2202"
           d="M 12.03617,8.8948075 9.6075995,15.466238 14.321884,14.180524 16.750455,7.8948076 12.03617,8.8948075 z"
           style="fill:#000000;fill-opacity:1;fill-rule:evenodd;stroke:none" />
        <path
           style="fill:#000000;fill-opacity:1;fill-rule:evenodd;stroke:none"
           d="M 21.321885,6.5376647 18.679027,13.537667 23.393313,12.39481 26.03617,5.5376648 21.321885,6.5376647 z"
           id="path2204"
           sodipodi:nodetypes="ccccc" />
        <path
           sodipodi:nodetypes="ccccc"
           id="path2206"
           d="m 30.964741,4.3948077 -2.57143,7.1428593 4.714286,-1.142858 2.571429,-7.0000012 -4.714285,0.9999999 z"
           style="fill:#000000;fill-opacity:1;fill-rule:evenodd;stroke:none" />
        <path
           sodipodi:nodetypes="ccccccc"
           id="rect2210"
           d="m 43.187955,1.7296291 c 0.229074,0.1560539 0.401242,0.3636209 0.46875,0.65625 l 0.660714,2.6473214 -1.080356,2.7857143 -5.116071,1.2276785 2.352678,-6.7142857 2.714285,-0.6026785 z"
           style="color:#000000;fill:#000000;fill-opacity:1;fill-rule:nonzero;stroke:none;stroke-width:1;marker:none;visibility:visible;display:block" />
        <rect
           style="color:#000000;fill:none;stroke:#ffffff;stroke-width:0.99999785;stroke-linecap:butt;stroke-linejoin:miter;stroke-miterlimit:4;stroke-opacity:0.57512949;stroke-dasharray:none;stroke-dashoffset:0;marker:none;visibility:visible;display:block"
           id="rect2510"
           width="38.199299"
           height="4.9147048"
           x="3.3127029"
           y="11.817399"
           rx="0.26506332"
           ry="0.26506332"
           transform="matrix(0.9744072,-0.2247901,0.2247901,0.9744072,0,0)" />
        <path
           sodipodi:nodetypes="ccccccc"
           id="path3583"
           d="m 8.4290279,11.644814 0,7.785714 c 0,0.464286 0.3928571,0.892858 0.8571428,0.928572 l 7.8928543,0 c 0.863664,0 1.273862,-1.261852 0.607142,-1.928572 l -6.214283,-7.285714 c -0.964285,-1.3928587 -3.1428561,-0.714286 -3.1428561,0.5 z"
           style="fill:url(#linearGradient3599);fill-opacity:1;fill-rule:evenodd;stroke:#1b1b1b;stroke-width:1;stroke-linecap:butt;stroke-linejoin:miter;stroke-miterlimit:4;stroke-opacity:1;stroke-dasharray:none" />
        <path
           transform="translate(1.8218847,-4.2123346)"
           d="m 9.0357146,17.196428 c 0,0.26628 -0.2158627,0.482143 -0.4821429,0.482143 -0.2662802,0 -0.4821429,-0.215863 -0.4821429,-0.482143 0,-0.26628 0.2158627,-0.482143 0.4821429,-0.482143 0.2662802,0 0.4821429,0.215863 0.4821429,0.482143 z"
           sodipodi:ry="0.48214287"
           sodipodi:rx="0.48214287"
           sodipodi:cy="17.196428"
           sodipodi:cx="8.5535717"
           id="path3587"
           style="color:#000000;fill:#ffffff;fill-opacity:1;fill-rule:nonzero;stroke:none;stroke-width:1;marker:none;visibility:visible;display:block"
           sodipodi:type="arc" />
        <path
           sodipodi:type="arc"
           style="color:#000000;fill:#ffffff;fill-opacity:1;fill-rule:nonzero;stroke:none;stroke-width:1;marker:none;visibility:visible;display:block"
           id="path3589"
           sodipodi:cx="8.5535717"
           sodipodi:cy="17.196428"
           sodipodi:rx="0.48214287"
           sodipodi:ry="0.48214287"
           d="m 9.0357146,17.196428 c 0,0.26628 -0.2158627,0.482143 -0.4821429,0.482143 -0.2662802,0 -0.4821429,-0.215863 -0.4821429,-0.482143 0,-0.26628 0.2158627,-0.482143 0.4821429,-0.482143 0.2662802,0 0.4821429,0.215863 0.4821429,0.482143 z"
           transform="translate(1.8218847,1.0733794)" />
        <path
           transform="translate(6.8575986,1.0733794)"
           d="m 9.0357146,17.196428 c 0,0.26628 -0.2158627,0.482143 -0.4821429,0.482143 -0.2662802,0 -0.4821429,-0.215863 -0.4821429,-0.482143 0,-0.26628 0.2158627,-0.482143 0.4821429,-0.482143 0.2662802,0 0.4821429,0.215863 0.4821429,0.482143 z"
           sodipodi:ry="0.48214287"
           sodipodi:rx="0.48214287"
           sodipodi:cy="17.196428"
           sodipodi:cx="8.5535717"
           id="path3591"
           style="color:#000000;fill:#ffffff;fill-opacity:1;fill-rule:nonzero;stroke:none;stroke-width:1;marker:none;visibility:visible;display:block"
           sodipodi:type="arc" />
        <g
           transform="translate(1.8933136,4.7519504)"
           style="opacity:0.26130652"
           id="g3629">
          <path
             style="fill:none;stroke:#ffffff;stroke-width:1;stroke-linecap:butt;stroke-linejoin:miter;stroke-miterlimit:4;stroke-opacity:1;stroke-dasharray:none"
             d="m 10,28.428571 28,0"
             id="path3601" />
          <path
             style="fill:none;stroke:#ffffff;stroke-width:1;stroke-linecap:butt;stroke-linejoin:miter;stroke-miterlimit:4;stroke-opacity:1;stroke-dasharray:none"
             d="m 10,32.571424 28,0"
             id="path3603" />
          <path
             style="fill:none;stroke:#ffffff;stroke-width:1;stroke-linecap:butt;stroke-linejoin:miter;stroke-miterlimit:4;stroke-opacity:1;stroke-dasharray:none"
             d="m 32.5,28 0,-4"
             id="path3607" />
          <path
             style="fill:none;stroke:#ffffff;stroke-width:1;stroke-linecap:butt;stroke-linejoin:miter;stroke-miterlimit:4;stroke-opacity:1;stroke-dasharray:none"
             d="m 10,32.571424 28,0"
             id="path3605" />
          <path
             style="fill:none;stroke:#ffffff;stroke-width:1;stroke-linecap:butt;stroke-linejoin:miter;stroke-miterlimit:4;stroke-opacity:1;stroke-dasharray:none"
             d="m 22.5,28 0,-4"
             id="path3611" />
          <path
             id="path3615"
             d="m 9.7429344,36.571424 13.2998316,0"
             style="fill:none;stroke:#ffffff;stroke-width:0.9999997;stroke-linecap:butt;stroke-linejoin:miter;stroke-miterlimit:4;stroke-opacity:1;stroke-dasharray:none" />
        </g>
        <g
           transform="matrix(0.688056,0,0,0.688056,13.875202,15.485262)"
           style="fill:#ffffff;fill-opacity:1"
           id="g3680">
          <path
             style="fill:#ffffff;fill-opacity:1;fill-rule:nonzero;stroke:none"
             id="path3674"
             d="m 13.817087,27.83871 c 0.113601,0.965157 0.244861,1.927714 0.394926,2.887925 l -2.107716,1.115321 C 11.971325,30.898587 11.859805,29.948673 11.653276,29.01819 l 2.163811,-1.17948 z" />
          <path
             style="fill:#ffffff;fill-opacity:1;fill-rule:nonzero;stroke:none"
             id="path3676"
             d="m 17.665061,28.673198 c -0.02417,2.079247 0.678,1.192783 -1.910963,2.589105 0.815412,-1.303562 2.191632,-2.618366 3.548625,-1.445006 2.591189,0.421672 -1.433848,2.481989 0.355171,0.314327 2.600013,-2.269865 2.222306,-0.997521 4.404319,-0.868565 1.780222,0.430207 1.796194,0.05633 -0.570253,1.416663 0.03203,-0.02793 0.06406,-0.05585 0.09609,-0.08377 l 2.238621,-0.946961 c -0.02529,0.03869 -0.05058,0.07738 -0.07587,0.116068 -2.811349,1.677475 -1.668398,1.183753 -3.647289,0.92631 -1.86635,-0.327685 -2.87539,-0.553295 -0.220839,-1.484714 -1.139443,1.293919 -2.981215,3.299891 -4.618598,1.882935 -1.588509,-1.170545 2.132535,-2.413333 0.764613,-0.73098 -2.682553,1.478611 -2.400461,1.55186 -2.560742,-0.565921 l 2.197119,-1.119488 z" />
          <path
             style="fill:#ffffff;fill-opacity:1;fill-rule:nonzero;stroke:none"
             id="path3678"
             d="m 29.174994,26.230789 c 0.14593,1.507956 0.225786,3.019542 0.405142,4.524683 1.423472,1.850746 -1.826977,4.633968 -1.347225,1.808834 0.342081,-3.243811 0.650319,-3.84417 3.528747,-4.879984 0.547689,0.983343 0.847731,2.137946 1.704024,2.727959 -4.840075,2.551671 1.693745,-1.481215 2.420946,-1.867341 0.464921,-0.109143 0.939853,-0.165325 1.412287,-0.230751 l -1.920756,1.437314 c -0.464844,0.06807 -0.935057,0.1189 -1.384984,0.261165 2.998581,-1.911568 -0.568404,0.841891 -2.506019,1.817551 -0.923746,-0.724224 -1.143464,-1.894425 -1.783232,-2.880314 3.14599,-2.218804 0.63263,-0.141231 0.637903,2.577332 -0.28354,2.350093 -3.320174,3.549885 -2.814981,0.306459 -0.172764,-1.481806 -0.250004,-2.982368 -0.530099,-4.447333 l 2.178247,-1.155574 z" />
        </g>
        <g
           transform="matrix(1.013963,0,0,1.013963,3.7718696,6.2210334)"
           id="g3755">
          <path
             style="fill:#ffffff;fill-opacity:1;fill-rule:nonzero;stroke:none"
             id="path3693"
             d="m 11.316278,22.373912 c 1.820856,-1.333208 1.127169,-0.281091 1.128436,1.146858 -0.01466,1.286348 0.175884,2.556881 0.462421,3.806594 l -1.262911,0.682145 c -0.287161,-1.259893 -0.47939,-2.540337 -0.475327,-3.836434 -0.01981,-1.552781 -0.288652,-1.952637 1.347165,-2.670858 l -1.199784,0.871695 z" />
          <path
             style="fill:#ffffff;fill-opacity:1;fill-rule:nonzero;stroke:none"
             id="path3695"
             d="m 15.610946,22.413179 c -0.02437,0.790304 -0.02398,1.581273 -0.02699,2.3719 -0.0011,0.331934 -0.001,0.663869 -0.0013,0.995804 l -1.264717,0.644405 c -3.07e-4,-0.33148 -2.58e-4,-0.66296 -0.0013,-0.994439 -0.003,-0.781455 -0.0024,-1.563275 -0.02699,-2.344395 l 1.321376,-0.673275 z" />
          <path
             style="fill:#ffffff;fill-opacity:1;fill-rule:nonzero;stroke:none"
             id="path3697"
             d="m 17.833281,21.200996 c 0.09877,0.796352 0.117107,1.655155 0.145148,2.472831 0.008,0.24117 0.0132,0.482416 0.01979,0.723625 l -1.257551,0.645191 c -0.0078,-0.240127 -0.0132,-0.480333 -0.02347,-0.72038 -0.03579,-0.815108 -0.04172,-1.648209 -0.205301,-2.447992 l 1.321376,-0.673275 z" />
          <path
             style="fill:#ffffff;fill-opacity:1;fill-rule:nonzero;stroke:none"
             id="path3699"
             d="m 20.257647,20.594904 c -0.196164,0.682214 -0.268848,1.395879 -0.337656,2.103621 -0.0674,0.761239 -0.09762,1.524887 -0.128658,2.288229 l -1.257113,0.634694 c 0.02996,-0.763385 0.05957,-1.526914 0.115545,-2.288959 0.05537,-0.688124 0.083,-1.405566 0.286506,-2.06431 l 1.321376,-0.673275 z" />
          <path
             style="fill:#ffffff;fill-opacity:1;fill-rule:nonzero;stroke:none"
             id="path3701"
             d="m 9.8969255,22.310339 c 0.9067235,0.190928 1.8267775,0.348564 2.7421905,0.503737 2.149945,0.332152 4.306576,0.626935 6.468095,0.873614 0.903938,0.09251 1.807226,0.19028 2.709599,0.296728 l -1.16802,0.826398 C 19.754597,24.700327 18.859587,24.597014 17.963955,24.498588 15.801624,24.238152 13.642863,23.943889 11.488982,23.62143 10.560864,23.472229 9.6271038,23.290017 8.6971411,23.182034 l 1.1997844,-0.871695 z" />
        </g>
      </g>
      <g
         transform="matrix(3.0072869,0.4068777,-0.4068777,3.0072869,114.51907,93.829056)"
         id="g3301"
         inkscape:label="Layer 1">
        <path
           sodipodi:type="arc"
           style="opacity:0.70329674;color:#000000;fill:url(#radialGradient7085);fill-opacity:1;fill-rule:evenodd;stroke:none;stroke-width:1;marker:none;visibility:visible;display:inline;overflow:visible"
           id="path7077"
           sodipodi:cx="23.157747"
           sodipodi:cy="26.963573"
           sodipodi:rx="21.566757"
           sodipodi:ry="14.318913"
           d="m 44.724504,26.963573 c 0,7.908118 -9.655766,14.318914 -21.566757,14.318914 -11.910991,0 -21.5667569,-6.410796 -21.5667569,-14.318914 0,-7.908117 9.6557659,-14.318913 21.5667569,-14.318913 11.910991,0 21.566757,6.410796 21.566757,14.318913 z"
           inkscape:r_cx="true"
           inkscape:r_cy="true"
           transform="translate(1.237437,0.762563)" />
        <path
           transform="matrix(1.254237,0,0,1.541926,-9.79661,-6.279528)"
           inkscape:r_cy="true"
           inkscape:r_cx="true"
           d="m 40.5,21 c 0,4.556349 -6.6038,8.25 -14.75,8.25 C 17.6038,29.25 11,25.556349 11,21 c 0,-4.556349 6.6038,-8.25 14.75,-8.25 8.1462,0 14.75,3.693651 14.75,8.25 z"
           sodipodi:ry="8.25"
           sodipodi:rx="14.75"
           sodipodi:cy="21"
           sodipodi:cx="25.75"
           id="path7028"
           style="color:#000000;fill:#a1a39f;fill-opacity:1;fill-rule:evenodd;stroke:#6d6f6a;stroke-width:0.7190817;stroke-linecap:round;stroke-linejoin:round;stroke-miterlimit:4;stroke-opacity:1;stroke-dasharray:none;stroke-dashoffset:0;marker:none;visibility:visible;display:inline;overflow:visible"
           sodipodi:type="arc" />
        <path
           sodipodi:type="arc"
           style="color:#000000;fill:#555753;fill-opacity:1;fill-rule:evenodd;stroke:none;stroke-width:1.11522388;marker:none;visibility:visible;display:inline;overflow:visible"
           id="path7042"
           sodipodi:cx="25.75"
           sodipodi:cy="21"
           sodipodi:rx="14.75"
           sodipodi:ry="8.25"
           d="m 40.5,21 c 0,4.556349 -6.6038,8.25 -14.75,8.25 C 17.6038,29.25 11,25.556349 11,21 c 0,-4.556349 6.6038,-8.25 14.75,-8.25 8.1462,0 14.75,3.693651 14.75,8.25 z"
           inkscape:r_cx="true"
           inkscape:r_cy="true"
           transform="matrix(0.764011,0,0,1.001814,2.310475,2.543083)" />
        <path
           style="fill:url(#radialGradient6540);fill-rule:nonzero;stroke:#3b3d39;stroke-miterlimit:4;stroke-opacity:1"
           d="m 46.025804,41.226233 c 0,0 -8.323895,-3.737007 -13.655999,-3.266718 -5.683012,0.501239 -15.176777,0.837437 -18.898097,-5.03934 15.798097,4.764466 23.08699,-3.145748 33.779379,1.309515 0,0 -1.225283,6.996543 -1.225283,6.996543 z"
           id="path6456"
           inkscape:r_cx="true"
           inkscape:r_cy="true"
           sodipodi:nodetypes="czccc" />
        <path
           transform="matrix(0.760969,0,0,0.986663,2.905048,0.584267)"
           inkscape:r_cy="true"
           inkscape:r_cx="true"
           d="m 40.5,21 c 0,4.556349 -6.6038,8.25 -14.75,8.25 C 17.6038,29.25 11,25.556349 11,21 c 0,-4.556349 6.6038,-8.25 14.75,-8.25 8.1462,0 14.75,3.693651 14.75,8.25 z"
           sodipodi:ry="8.25"
           sodipodi:rx="14.75"
           sodipodi:cy="21"
           sodipodi:cx="25.75"
           id="path7026"
           style="color:#000000;fill:url(#linearGradient7093);fill-opacity:1;fill-rule:evenodd;stroke:#757972;stroke-width:1.23408842;stroke-linecap:round;stroke-linejoin:round;stroke-miterlimit:4;stroke-opacity:1;stroke-dasharray:none;stroke-dashoffset:0;marker:none;visibility:visible;display:inline;overflow:visible"
           sodipodi:type="arc" />
        <path
           style="color:#000000;fill:#d3d7cf;fill-opacity:1;fill-rule:evenodd;stroke:#888a85;stroke-width:1;stroke-linecap:round;stroke-linejoin:round;stroke-miterlimit:4;stroke-opacity:1;stroke-dasharray:none;stroke-dashoffset:0;marker:none;visibility:visible;display:inline;overflow:visible"
           d="M 21.09375,7.71875 C 11.536229,8.2444238 4.0000001,14.13337 4,21.25 4,28.711046 12.288003,34.781251 22.5,34.78125 32.711998,34.78125 41,28.711045 41,21.25 41,13.788954 32.711998,7.71875 22.5,7.71875 c -0.03989,0 -0.08517,-1.845e-4 -0.125,0 -0.238056,0.0011 -0.482906,-0.00764 -0.71875,0 -0.115158,0.00373 -0.22915,-0.00527 -0.34375,0 -0.0755,0.00347 -0.143494,-0.00414 -0.21875,0 z m -1.375,2.1875 c 0.06325,-0.00511 0.123591,0.00347 0.1875,0 0.134104,-0.00728 0.269544,0 0.40625,0 2.916392,2e-7 5.28125,1.702203 5.28125,3.78125 0,2.079047 -2.364859,3.75 -5.28125,3.75 -2.916391,0 -5.28125,-1.670953 -5.28125,-3.75 0,-1.935148 2.051954,-3.568463 4.6875,-3.78125 z m 11.5,4.59375 c 0.06665,-0.006 0.120185,0.0043 0.1875,0 0.116752,-0.0074 0.225136,0.0021 0.34375,0 0.0482,-8.73e-4 0.07651,0 0.125,0 3.103453,0 5.625,1.814203 5.625,4.03125 0,2.217046 -2.521546,4 -5.625,4 -3.103454,1e-6 -5.625,-1.782953 -5.625,-4 -1e-6,-2.048003 2.191783,-3.782807 4.96875,-4.03125 z M 12,17.65625 c 0.217826,-0.01782 0.463035,0 0.6875,0 3.192389,0 5.78125,1.842348 5.78125,4.125 0,2.282652 -2.588861,4.125 -5.78125,4.125 -3.1923882,0 -5.78125,-1.842348 -5.78125,-4.125 0,-2.122152 2.2136041,-3.889336 5.09375,-4.125 z m 11.53125,5.125 c 0.02398,-0.0028 0.03844,0.0026 0.0625,0 0.0027,-1.17e-4 0.0287,-3.3e-5 0.03125,0 0.0026,4.5e-5 0.02849,9.9e-5 0.03125,0 0.0062,1.06e-4 0.02806,1.15e-4 0.03125,0 0.02615,1.79e-4 0.06751,-3.83e-4 0.09375,0 0.0032,-7.7e-5 0.02502,-8.3e-5 0.03125,0 0.240976,-0.01978 0.47043,0 0.71875,0 3.531666,0 6.40625,2.029561 6.40625,4.5625 0,2.53294 -2.874584,4.59375 -6.40625,4.59375 -3.531666,0 -6.40625,-2.060811 -6.40625,-4.59375 0,-2.281969 2.361444,-4.208711 5.40625,-4.5625 z"
           id="path7012"
           inkscape:r_cx="true"
           inkscape:r_cy="true" />
        <path
           sodipodi:type="arc"
           style="color:#000000;fill:none;stroke:url(#linearGradient7060);stroke-width:1.05932879;stroke-linecap:round;stroke-linejoin:round;stroke-miterlimit:4;stroke-opacity:1;stroke-dasharray:none;stroke-dashoffset:0;marker:none;visibility:visible;display:inline;overflow:visible"
           id="path7044"
           sodipodi:cx="22.185474"
           sodipodi:cy="19.008621"
           sodipodi:rx="18.473166"
           sodipodi:ry="13.435029"
           d="m 40.65864,19.008621 c 0,7.419962 -8.270718,13.435029 -18.473166,13.435029 -10.202447,0 -18.4731651,-6.015067 -18.4731651,-13.435029 0,-7.419961 8.2707181,-13.4350288 18.4731651,-13.4350288 10.202448,0 18.473166,6.0150678 18.473166,13.4350288 z"
           inkscape:r_cx="true"
           inkscape:r_cy="true"
           transform="matrix(0.950533,0,0,0.9375,1.450995,3.320621)" />
        <path
           style="color:#000000;fill:url(#linearGradient7075);fill-opacity:1;fill-rule:evenodd;stroke:none;stroke-width:1;marker:none;visibility:visible;display:inline;overflow:visible"
           d="m 46.875,34.493906 -1.081562,6.04999 C 43.18442,39.668459 41.611389,38.97574 38.722272,38.287036 l 0.331829,-4.912647 c 1.898531,-0.201306 4.863279,0.141734 7.820899,1.119517 z"
           id="path7067"
           inkscape:r_cx="true"
           inkscape:r_cy="true"
           sodipodi:nodetypes="ccccc" />
        <path
           style="opacity:0.70329674;color:#000000;fill:url(#linearGradient7144);fill-opacity:1;fill-rule:evenodd;stroke:none;stroke-width:1;marker:none;visibility:visible;display:inline;overflow:visible"
           d="m 46.875,34.3125 -0.1875,0.875 c -8.104899,-3.028886 -15.566065,-0.226719 -23.375,0 10.611053,-0.882579 14.090243,-3.715657 23.5625,-0.875 z"
           id="path7136"
           inkscape:r_cx="true"
           inkscape:r_cy="true"
           sodipodi:nodetypes="cccc" />
      </g>
    </g>
    <rect
       style="fill:#241c1c;fill-opacity:0.72156864;fill-rule:evenodd;stroke:#000000;stroke-width:0.64545399000000003;stroke-opacity:1"
       id="rect2980"
       width="274.47791"
       height="49.904202"
       x="0.32272699"
       y="188.77307"
       ry="0.69346774" />
    <text
       xml:space="preserve"
       style="font-size:40px;font-style:normal;font-weight:normal;fill:#e3dbdb;fill-opacity:1;stroke:none;font-family:Bitstream Vera Sans"
       x="46.985508"
       y="228.02205"
       id="text2968"><tspan
         sodipodi:role="line"
         id="tspan2970"
         x="46.985508"
         y="228.02205">Reservar</tspan></text>
  </g>
</svg>
