<?xml version="1.0" encoding="UTF-8" standalone="no"?>
<svg
   xmlns:dc="http://purl.org/dc/elements/1.1/"
   xmlns:cc="http://creativecommons.org/ns#"
   xmlns:rdf="http://www.w3.org/1999/02/22-rdf-syntax-ns#"
   xmlns:svg="http://www.w3.org/2000/svg"
   xmlns="http://www.w3.org/2000/svg"
   xmlns:sodipodi="http://sodipodi.sourceforge.net/DTD/sodipodi-0.dtd"
   xmlns:inkscape="http://www.inkscape.org/namespaces/inkscape"
   version="1.0"
   x="0px"
   y="0px"
   width="239px"
   height="157px"
   viewBox="-7.692 -14.393 239 157"
   enable-background="new -7.692 -14.393 239 157"
   xml:space="preserve"
   id="svg2"
   inkscape:version="0.47 r22583"
   sodipodi:docname="bluray3D.svg"><metadata
   id="metadata28"><rdf:RDF><cc:Work
       rdf:about=""><dc:format>image/svg+xml</dc:format><dc:type
         rdf:resource="http://purl.org/dc/dcmitype/StillImage" /></cc:Work></rdf:RDF></metadata><defs
   id="defs26"><inkscape:perspective
     sodipodi:type="inkscape:persp3d"
     inkscape:vp_x="0 : 78.5 : 1"
     inkscape:vp_y="0 : 1000 : 0"
     inkscape:vp_z="239 : 78.5 : 1"
     inkscape:persp3d-origin="119.5 : 52.333333 : 1"
     id="perspective30" /></defs><sodipodi:namedview
   pagecolor="#ffffff"
   bordercolor="#666666"
   borderopacity="1"
   objecttolerance="10"
   gridtolerance="10"
   guidetolerance="10"
   inkscape:pageopacity="0"
   inkscape:pageshadow="2"
   inkscape:window-width="1024"
   inkscape:window-height="525"
   id="namedview24"
   showgrid="false"
   inkscape:zoom="1.5031847"
   inkscape:cx="119.5"
   inkscape:cy="77.169492"
   inkscape:window-x="0"
   inkscape:window-y="25"
   inkscape:window-maximized="1"
   inkscape:current-layer="svg2" />
<path
   fill-rule="evenodd"
   clip-rule="evenodd"
   fill="#007DC5"
   d="M0,103.399v-2.075c0.366-2.544,1.455-5.088,2.373-6.963  c0.347-0.703,0.562-1.519,1.187-1.934h24.751c-4.248,8.394,7.773,8.857,15.269,8.301c6.328-0.464,12.29-2.119,15.415-5.034  c1.167-1.094,2.964-3.433,2.52-5.483c-0.322-1.45-2.495-2.28-4.453-2.671c-6.514-1.289-14.302,0.054-21.045-0.444  c2.095-3.604,3.662-6.089,5.781-9.487c0.459-0.728,1.396-2.686,2.227-2.964c1.03-0.342,3.164,0,4.888,0  c8.56,0,16.934,0.84,22.085-2.515c1.406-0.918,4.365-3.525,3.853-6.079c-0.313-1.553-2.515-2.319-4.741-2.666  c-9.028-1.401-17.891,0.293-22.378,3.706c-0.894,0.674-1.479,1.587-2.378,1.772c-1.802,0.376-4.141,0-6.221,0H20.156  C30.806,53.736,56.587,48.819,83.74,51.08c7.456,0.625,17.627,2.119,19.121,8.301c0.728,3.003-0.918,6.563-2.373,8.745  c-4.263,6.387-11.499,10.386-19.863,11.709c4.78,1.074,9.082,2.9,8.301,9.038c-0.396,3.14-2.69,6.45-4.888,9.043  c-10.64,12.549-30.444,16.597-53.506,16.597c-9.419,0-18.364-0.732-24.453-3.701C3.154,109.386,0.425,107.022,0,103.399"
   id="path4"
   style="fill:#e50000;fill-opacity:1" />
<path
   fill-rule="evenodd"
   clip-rule="evenodd"
   fill="#007DC5"
   d="M123.164,51.08h36.909c13.623,0,30.083-1.504,36.753,5.337  c1.313,1.348,2.686,3.745,2.964,6.226c0.713,6.318-2.515,12.295-4.746,16.304c-10,18.013-24.941,30.972-49.204,34.385  c-6.26,0.879-12.939,0.742-20.151,0.742H83.892c-0.581,0,0.098-0.854,0.293-1.187c1.626-2.759,3.818-5.776,5.63-8.594  c6.274-9.746,12.446-20.127,18.975-29.648h24.458c0.542,0.273-0.347,1.094-0.596,1.484c-4.893,7.676-10.278,15.991-15.264,23.711  h20.449c12.749,0,20.947-6.099,26.831-13.779c1.44-1.885,2.744-3.833,3.999-6.226c1.396-2.661,3.135-6.509,1.924-9.785  c-2.402-6.514-16.504-4.888-25.64-4.888H114.57c-0.542-0.273,0.298-1.162,0.591-1.631c1.05-1.685,2.144-3.394,3.262-5.19  C119.995,55.821,121.509,53.233,123.164,51.08"
   id="path6"
   style="fill:#e50000;fill-opacity:1" />
<path
   fill="#007DC5"
   d="M76.151,0.973c-0.772,0-3.022,0.717-5.172,3.886C68.765,8.029,59.183,23.88,57.346,26.833  c-1.846,2.926-1.231,4.354,0.708,4.354h4.318c2.104,0,3.775-2.416,4.676-3.835c0.91-1.506,12.356-19.917,13.991-22.626  c1.663-2.729,0.588-3.753-0.524-3.753H76.151"
   id="path8"
   style="fill:#e50000;fill-opacity:1" />
<path
   fill="#007DC5"
   d="M37.356,31.101c7.202-0.303,12.135-0.395,17.804-10.95c2.508-4.694-4.501-4.956-4.501-4.956  c-0.891,0,6.366,0.358,10.289-7.854c3.574-7.386-2.857-6.812-4.023-6.909c-5.328-0.579-15.406-0.579-23.049,0.023  c-1.663,0-3.417,2.146-4.345,3.432C28.62,5.24,16.971,24.243,15.244,27.104c-1.773,2.765-0.174,3.9,1.847,3.996  C22.409,31.413,29.29,31.459,37.356,31.101 M43.529,21.193c-1.948,4.12-5.696,4.217-7.708,4.217H30.2c-0.735,0-1.58,0-0.662-1.419  c0.918-1.433,2.306-3.643,2.939-4.575c0.625-1.015,1.158-1.213,2.278-1.213h6.173C42.133,18.203,45.027,18.069,43.529,21.193   M48.949,8.975c-1.947,4.083-5.916,4.185-7.91,4.185h-3.252c-0.716,0-1.543,0-0.597-1.428c0.9-1.419,2.177-3.638,2.811-4.616  c0.597-0.951,1.194-1.208,2.278-1.208h4.088C47.571,5.906,50.456,5.842,48.949,8.975"
   id="path10"
   style="fill:#e50000;fill-opacity:1" />
<path
   fill="#007DC5"
   d="M119.392,15.979c-2.168,0-2.958,1.543-3.353,2.154c-0.386,0.647-0.818,1.061-1.286,2.003  c-0.478,0.951-0.349,2.071,0.331,2.071h6.118c1.635,0,2.71-0.556,3.289-1.451c0.551-0.882,0.79-1.332,1.626-2.678  c0.808-1.3-0.23-2.099-1.084-2.099H119.392"
   id="path12"
   style="fill:#e50000;fill-opacity:1" />
<path
   fill="#007DC5"
   d="M162.79,17.247c-3.574,0-4.686,0.207-7.938,0.313c-1.185,0-2.802,1.08-3.61,2.389l-3.05,5.126  c-3.702,5.861,4.4,6.293,10.62,6.293c10.068,0,14.873-2.747,14.873-2.747c1.185-0.647,2.765-2.264,3.574-3.546l6.477-10.477  c0.827-1.282,0.983-3.303,0.358-4.469c0,0-0.946-1.847-11.015-1.847c-9.949,0-13.862,1.612-13.862,1.612  c-1.204,0.432-2.499,1.419-2.912,2.113c-0.469,0.717,0.156,1.213,1.313,1.213h14.8c1.194,0,1.598,0.992,0.873,2.016  c-1.194,1.842-3.344,2.012-3.344,2.012H162.79 M168.494,24.096l-0.101,0.152c-0.946,1.534-2.783,2.729-4.116,2.729l-2.958,0.17  l-2.6-0.17c-1.323,0-1.672-1.194-0.726-2.729l0.11-0.152c0.965-1.543,2.802-2.792,4.125-2.792h5.549  C169.128,21.303,169.45,22.553,168.494,24.096"
   id="path14"
   style="fill:#e50000;fill-opacity:1" />
<path
   fill="#007DC5"
   d="M143.231,15.46c0.809-1.336,2.462-2.37,3.656-2.37h4.566c0.634,0,2.765-0.115,2.986-1.598  c0.331-2.37-4.731-2.963-6.348-2.963c-6.78,0-10.537,0.45-14.451,6.104c-2.875,4.58-5.732,9.311-7.753,12.719  c-1.791,3.045-0.156,3.835,0.79,3.835h4.088c1.598,0,2.811-0.138,5.153-3.835L143.231,15.46"
   id="path16"
   style="fill:#e50000;fill-opacity:1" />
<path
   fill="#007DC5"
   d="M113.522,12.438l-6.514,10.611c-0.735,1.346-0.009,1.911,0.744,1.911h2.131c0.864,0,1.948,0.753,1.121,2.145  c-0.808,1.295-1.056,1.842-1.626,2.729c-0.56,0.909-1.635,1.41-3.289,1.41h-2.802c-1.792,0-0.836-2.843-0.836-2.843  c-2.618,2.977-9.04,3.013-15.507,3.013c-6.127,0-14.331,0.046-10.564-6.284l7.818-12.747c1.488-2.26,2.397-2.935,3.583-3.651  c0,0,0.404-0.234,3.813-0.234c2.141,0,5.227-0.179,2.646,3.886l-7.175,11.653c-0.836,1.328-0.523,2.389,0.662,2.389h5.199  c1.167,0,2.765-1.061,3.601-2.389c0,0,3.785-6.141,7.102-11.598c0.799-1.364,2.939-4.12,5.145-4.12h3.592  C113.88,8.318,115.699,8.828,113.522,12.438"
   id="path18"
   style="fill:#e50000;fill-opacity:1" />
<path
   fill="#007DC5"
   d="M178.14,37.109l11.667,0.037l2.59,0.009c1.158,0,2.793-1.061,3.583-2.425l2.242-3.537  c-1.47,0.12-3.032,0.179-4.787,0.179c-6.155,0-14.377,0.083-10.583-6.292l7.662-12.361c0.817-1.346,2.425-2.958,3.573-3.615  c0,0,0.414-0.271,3.803-0.271c2.15,0,5.53-0.643,2.664,3.886l-7,11.313c-0.827,1.318-0.569,2.37,0.634,2.37h4.805  c1.148,0,2.774-1.052,3.574-2.37l7.027-11.313c0.809-1.346,2.407-2.889,3.537-3.542c0,0,0.588-0.344,3.923-0.344  c1.874,0,5.512-0.689,2.544,3.886l-5.999,9.632l-0.615,1.107l-7.671,12.402c-0.799,1.286-2.389,2.875-3.546,3.564  c0,0-4.887,2.71-14.928,2.71l-1.25-0.032c-9.232-0.037-8.938-0.703-9.499-1.052c-0.523-0.308-1.157-1.061-1.029-2.2  C175.237,37.793,176.523,37.109,178.14,37.109"
   id="path20"
   style="fill:#e50000;fill-opacity:1" />
<path
   fill-rule="evenodd"
   clip-rule="evenodd"
   fill="#007DC5"
   d="M147.324,126.373H33.501c-0.039-0.117-0.127-0.171-0.298-0.151  c-8.906-0.425-18.901-0.674-24.312-4.443c-1.323-0.928-2.646-2.334-2.964-3.999c9.404,1.841,19.634,1.333,29.941,1.333h93.965  c10.728,0,19.644-0.991,27.715-3.56c15.986-5.083,27.441-14.233,36.313-26.382c4.375-5.986,8.521-12.803,10.522-20.898  c7.202,5.503,2.388,16.748-0.591,22.378c-3.55,6.699-8.203,12.803-13.047,17.642C180.479,118.561,166.279,125.338,147.324,126.373"
   id="path22"
   style="fill:#e50000;fill-opacity:1" />
</svg>