<?xml version="1.0" encoding="UTF-8" standalone="no"?>
<!-- Created with Inkscape (http://www.inkscape.org/) -->

<svg
   xmlns:dc="http://purl.org/dc/elements/1.1/"
   xmlns:cc="http://creativecommons.org/ns#"
   xmlns:rdf="http://www.w3.org/1999/02/22-rdf-syntax-ns#"
   xmlns:svg="http://www.w3.org/2000/svg"
   xmlns="http://www.w3.org/2000/svg"
   xmlns:sodipodi="http://sodipodi.sourceforge.net/DTD/sodipodi-0.dtd"
   xmlns:inkscape="http://www.inkscape.org/namespaces/inkscape"
   width="210"
   height="130"
   id="svg2"
   sodipodi:version="0.32"
   inkscape:version="0.47 r22583"
   version="1.0"
   sodipodi:docname="dvd.svg"
   inkscape:output_extension="org.inkscape.output.svg.inkscape">
  <defs
     id="defs4">
    <inkscape:perspective
       sodipodi:type="inkscape:persp3d"
       inkscape:vp_x="0 : 65 : 1"
       inkscape:vp_y="0 : 1000 : 0"
       inkscape:vp_z="210 : 65 : 1"
       inkscape:persp3d-origin="105 : 43.333333 : 1"
       id="perspective8" />
  </defs>
  <sodipodi:namedview
     id="base"
     pagecolor="#ffffff"
     bordercolor="#666666"
     borderopacity="1.0"
     gridtolerance="10000"
     guidetolerance="10"
     objecttolerance="10"
     inkscape:pageopacity="0.0"
     inkscape:pageshadow="2"
     inkscape:zoom="1"
     inkscape:cx="-62.80412"
     inkscape:cy="94.241684"
     inkscape:document-units="px"
     inkscape:current-layer="layer1"
     width="210px"
     height="130px"
     inkscape:window-width="1016"
     inkscape:window-height="522"
     inkscape:window-x="0"
     inkscape:window-y="25"
     showgrid="false"
     inkscape:window-maximized="0" />
  <metadata
     id="metadata7">
    <rdf:RDF>
      <cc:Work
         rdf:about="">
        <dc:format>image/svg+xml</dc:format>
        <dc:type
           rdf:resource="http://purl.org/dc/dcmitype/StillImage" />
      </cc:Work>
    </rdf:RDF>
  </metadata>
  <g
     inkscape:label="Layer 1"
     inkscape:groupmode="layer"
     id="layer1"
     transform="translate(-144.69899,-462.36085)">
    <path
       style="fill:#e50000;fill-opacity:1"
       d="M 178.29266,581.16195 C 177.59216,579.88188 175.34598,575.77715 173.30115,572.04034 L 169.5833,565.24613 L 170.50145,565.22976 C 171.00642,565.22074 172.27657,565.23581 173.324,565.26322 L 175.2284,565.31307 L 178.2037,571.15341 C 179.8401,574.36561 181.20098,576.99377 181.22787,576.99377 C 181.25474,576.99377 182.59824,574.35857 184.21339,571.13782 L 187.15004,565.28187 L 189.81083,565.28074 C 191.27426,565.2801 192.47162,565.29156 192.47162,565.30618 C 192.47162,565.32079 190.21646,569.40988 187.46017,574.39302 L 182.44874,583.45329 L 181.00754,583.47131 L 179.56632,583.48933 L 178.29266,581.16195 z M 296.4934,583.44434 C 296.40136,583.43105 296.05495,583.38736 295.72361,583.34726 C 293.07515,583.02668 290.44457,581.98055 288.53255,580.48753 C 286.74315,579.09027 285.59363,577.35064 285.21165,575.46186 C 285.03884,574.60742 285.10138,573.0861 285.34268,572.27463 C 285.75074,570.90229 286.49541,569.7264 287.68821,568.57088 C 289.59638,566.72238 292.32763,565.47113 295.55627,564.96635 C 296.64754,564.79575 299.54601,564.79517 300.64356,564.96537 C 307.14034,565.97278 311.53805,570.10663 311.08529,574.78057 C 310.99742,575.68773 310.79993,576.37962 310.38569,577.2315 C 308.80218,580.48811 304.91346,582.83468 300.18316,583.38802 C 299.42727,583.47644 296.97476,583.51387 296.4934,583.44434 z M 299.57255,579.89752 C 301.20061,579.6337 302.7964,578.87706 303.89796,577.84659 C 304.92778,576.88324 305.49127,575.83921 305.66967,574.56393 C 306.01971,572.06169 304.08221,569.54425 301.0232,568.52665 C 299.82693,568.1287 299.35291,568.05753 297.8991,568.05753 C 296.77577,568.05753 296.49659,568.07929 295.89639,568.21366 C 294.22261,568.58835 292.93287,569.25181 291.85056,570.2949 C 290.6382,571.46335 290.07403,572.78504 290.15099,574.27661 C 290.30181,577.19998 293.168,579.59913 296.99543,580.00576 C 297.66645,580.07704 298.7439,580.03179 299.57255,579.89752 z M 225.35495,582.96799 L 221.52273,582.95015 L 221.52273,574.07298 L 221.52273,565.19581 L 226.35902,565.24179 C 231.5139,565.2908 231.99332,565.3182 233.59223,565.65513 C 235.12048,565.97718 236.32874,566.38898 237.58789,567.01692 C 238.92254,567.68253 239.84853,568.34799 240.7719,569.30514 C 242.31216,570.90178 243.02435,572.65556 242.92379,574.60434 C 242.83482,576.32934 242.14859,577.74541 240.70992,579.17285 C 238.93863,580.9303 236.39573,582.13739 233.03718,582.81498 C 232.07952,583.00819 231.96,583.01739 230.60856,583.00202 C 229.82679,582.99311 227.46265,582.9778 225.35495,582.96799 z M 232.8018,579.68039 C 234.1384,579.2308 235.0031,578.71506 235.84749,577.86384 C 236.48235,577.22387 236.86746,576.60753 237.16495,575.7554 C 237.33741,575.26142 237.35193,575.14203 237.35219,574.21582 C 237.35248,573.255 237.34311,573.1848 237.13451,572.58585 C 236.83866,571.73631 236.4631,571.11868 235.85553,570.48251 C 235.02334,569.61114 234.08969,569.03326 232.92724,568.67002 C 231.84928,568.33317 231.44252,568.29462 228.76876,568.27585 L 226.27528,568.25833 L 226.27531,574.10135 L 226.27535,579.94434 L 229.20389,579.92496 L 232.13243,579.90557 L 232.8018,579.68039 z M 203.98496,574.11541 L 203.98496,565.27959 L 206.39472,565.27959 L 208.8045,565.27959 L 208.8045,574.11541 L 208.8045,582.95124 L 206.39472,582.95124 L 203.98496,582.95124 L 203.98496,574.11541 z M 254.72402,574.11541 L 254.72402,565.27959 L 264.0619,565.27959 L 273.39976,565.27959 L 273.39976,566.75189 L 273.39976,568.22419 L 267.15779,568.24126 L 260.91581,568.25833 L 260.89807,570.21627 L 260.88031,572.17422 L 266.80535,572.17422 L 272.73037,572.17422 L 272.73037,573.6465 L 272.73037,575.11877 L 266.82309,575.13586 L 260.91581,575.15296 L 260.91581,577.56273 L 260.91581,579.97251 L 267.15779,579.98959 L 273.39976,580.00666 L 273.39976,581.47896 L 273.39976,582.95124 L 264.0619,582.95124 L 254.72402,582.95124 L 254.72402,574.11541 z M 234.57567,557.40656 C 229.88379,557.31199 226.44358,557.2273 223.89905,557.14371 C 186.53729,555.91634 158.15857,551.52274 152.84289,546.14275 C 152.16987,545.46158 151.95938,545.05908 151.91994,544.37788 C 151.89097,543.87761 151.90115,543.83029 152.1429,543.34118 C 154.60056,538.36843 176.70894,534.00576 209.20613,532.08081 C 219.05641,531.49733 232.71705,531.0778 241.96276,531.0748 C 243.37279,531.07434 243.75378,531.05618 243.7293,530.99055 C 243.71215,530.94453 239.86572,520.42438 235.18169,507.61243 C 230.49766,494.80048 226.64803,484.30292 226.62699,484.28451 C 226.60594,484.2661 226.61131,484.31128 226.63895,484.38492 C 226.77626,484.75074 227.35415,487.179 227.50715,488.03304 C 228.56117,493.91647 227.67799,498.96988 224.83985,503.29492 C 223.40117,505.4873 221.23812,507.66109 218.71135,509.45385 C 212.42171,513.91635 202.63933,517.05754 190.06185,518.6534 C 185.7913,519.19524 181.70705,519.52768 176.27258,519.77573 C 172.4224,519.95148 158.79786,519.85009 157.59162,519.63672 L 157.35209,519.59435 L 161.30668,502.80982 L 165.26128,486.0253 L 174.95184,486.02509 L 184.6424,486.0249 L 184.60438,486.17551 C 184.58348,486.25835 183.27966,491.43183 181.70706,497.67212 L 178.84777,509.01814 L 179.04955,509.04232 C 179.16052,509.05563 180.93818,509.03125 182.99987,508.98813 C 186.36801,508.9177 186.86657,508.89294 187.91289,508.7442 C 192.31936,508.11777 196.27117,506.81131 199.41666,504.94103 C 203.68052,502.40579 206.3976,498.9749 207.24073,495.06153 C 207.41286,494.26256 207.41669,492.11978 207.24738,491.33582 C 206.18051,486.39557 201.70216,483.15058 194.97634,482.44425 C 194.15224,482.35772 191.70592,482.32479 180.2709,482.24635 C 172.72663,482.19459 166.54341,482.14164 166.53041,482.12866 C 166.51743,482.11567 167.05762,479.66604 167.73081,476.68505 L 168.95481,471.26506 L 204.96152,471.24871 L 240.96825,471.23238 L 245.78266,486.99396 C 248.43056,495.66282 250.61442,502.78111 250.63565,502.81236 C 250.65691,502.84359 256.32218,495.79644 263.22517,487.15197 L 275.77606,471.43481 L 299.00358,471.45246 L 322.2311,471.47012 L 323.26863,471.62221 C 328.25702,472.35347 331.80585,473.3892 335.27689,475.12687 C 336.57025,475.77434 337.13442,476.09807 338.24116,476.82782 C 344.35727,480.86058 347.71226,486.86343 347.47798,493.35462 C 347.22779,500.28672 343.07571,506.79028 335.853,511.5633 C 335.1719,512.01339 334.28365,512.57124 333.8791,512.80295 C 327.88292,516.23744 320.49804,518.43745 311.88916,519.35388 C 309.22632,519.63736 309.23472,519.63724 293.10768,519.61539 L 277.57269,519.59435 L 281.52739,502.80979 L 285.48209,486.02521 L 295.07097,486.02506 C 300.34485,486.02497 304.65985,486.04146 304.65985,486.0617 C 304.65985,486.08194 303.43979,491.22268 301.94861,497.48555 C 300.45742,503.74842 299.24548,508.88072 299.25539,508.89062 C 299.26531,508.90055 301.45681,508.86629 304.12539,508.8145 C 309.60126,508.70823 309.57397,508.71073 312.12959,508.08092 C 318.38284,506.53987 323.25324,503.49239 325.97193,499.41957 C 326.83673,498.12405 327.5792,496.32995 327.8586,494.86073 C 328.03764,493.91917 328.02512,492.30344 327.83177,491.40081 C 327.45376,489.63603 326.69441,488.17757 325.47575,486.87567 C 323.23953,484.48669 319.99094,483.03151 315.33425,482.33287 L 314.3324,482.18257 L 300.80676,482.16082 L 287.28112,482.13907 L 265.55207,506.58992 L 243.82301,531.04076 L 248.65434,531.08569 C 261.86996,531.20861 272.90633,531.59604 283.64129,532.31393 C 308.89036,534.00244 327.4392,537.1837 334.38036,541.01603 C 335.65826,541.72158 336.64508,542.59711 337.02103,543.35892 C 337.18567,543.69254 337.21888,543.84293 337.22097,544.26423 C 337.22314,544.70381 337.19464,544.82802 337.00164,545.22006 C 334.38974,550.52558 309.37436,555.10136 273.63404,556.81117 C 269.76668,556.99617 265.92611,557.13293 259.30929,557.32124 C 257.07678,557.38477 236.9411,557.45423 234.57567,557.40656 z M 247.32737,549.61662 C 253.51619,549.36393 258.71167,548.71108 262.85701,547.66519 C 265.16294,547.08339 267.42717,546.2025 268.51988,545.46207 C 269.71134,544.65471 270.20859,543.72122 269.89715,542.87649 C 269.00126,540.44654 261.98749,538.33599 252.0465,537.50495 C 248.87698,537.23999 247.69052,537.19907 243.17721,537.19907 C 238.12368,537.19907 236.17492,537.28848 232.16589,537.70428 C 224.57017,538.4921 218.6746,540.20106 216.95518,542.11347 C 216.56732,542.54485 216.41733,542.86437 216.38186,543.33472 C 216.28143,544.66643 217.98026,545.93372 221.34867,547.03979 C 225.50602,548.40493 231.6986,549.31915 238.75929,549.61014 C 240.6462,549.68791 245.49175,549.69158 247.32737,549.61662 z M 324.30813,557.02948 C 324.36316,556.55304 324.47305,555.21702 324.47329,555.02133 C 324.47351,554.84707 324.45705,554.83726 324.1645,554.83726 C 323.87669,554.83726 323.85823,554.82691 323.89583,554.68664 C 323.91803,554.6038 323.93659,554.42307 323.9371,554.28502 L 323.93802,554.034 L 325.08433,554.034 L 326.23064,554.034 L 326.18881,554.24318 C 326.16579,554.35823 326.14697,554.53895 326.14697,554.64481 C 326.14697,554.82776 326.13236,554.83726 325.85107,554.83726 C 325.49541,554.83726 325.51823,554.76454 325.40484,556.25968 L 325.32488,557.31397 L 324.80008,557.31397 L 324.27527,557.31397 L 324.30813,557.02948 z M 326.17474,557.12987 C 326.19587,557.02864 326.30467,556.37347 326.41651,555.67398 C 326.52836,554.97447 326.63635,554.31933 326.65649,554.21807 L 326.69311,554.034 L 327.28263,554.034 L 327.87216,554.034 L 327.91115,554.31848 C 327.9326,554.47495 327.97023,554.8233 327.99477,555.09258 C 328.01931,555.36186 328.06059,555.55767 328.08651,555.52768 C 328.11243,555.4977 328.21769,555.14935 328.32041,554.75359 L 328.50719,554.034 L 329.10093,554.034 L 329.69469,554.034 L 329.69469,555.67398 L 329.69469,557.31397 L 329.25309,557.31397 L 328.81149,557.31397 L 328.85107,556.22622 C 328.87284,555.62796 328.87674,555.16859 328.85973,555.20542 C 328.83324,555.26275 328.67684,555.83285 328.35933,557.02948 L 328.28383,557.31397 L 327.93028,557.31397 L 327.57673,557.31397 L 327.4932,556.49397 C 327.39228,555.50329 327.3393,555.09518 327.31483,555.11994 C 327.30474,555.13013 327.24774,555.56019 327.18816,556.0756 C 327.0309,557.43591 327.09124,557.31397 326.57547,557.31397 L 326.13633,557.31397 L 326.17474,557.12987 z "
       id="path2278" />
  </g>
</svg>
